<?xml version="1.0" encoding="UTF-8" standalone="no"?>
<!-- Created with Fritzing (http://www.fritzing.org/) -->

<svg
   xmlns:dc="http://purl.org/dc/elements/1.1/"
   xmlns:cc="http://creativecommons.org/ns#"
   xmlns:rdf="http://www.w3.org/1999/02/22-rdf-syntax-ns#"
   xmlns:svg="http://www.w3.org/2000/svg"
   xmlns="http://www.w3.org/2000/svg"
   xmlns:sodipodi="http://sodipodi.sourceforge.net/DTD/sodipodi-0.dtd"
   xmlns:inkscape="http://www.inkscape.org/namespaces/inkscape"
   version="1.2"
   x="0in"
   y="0in"
   width="0.5724390149in"
   height="0.3184344471in"
   viewBox="0 0 41.21562217 22.92737575"
   id="svg150"
   inkscape:version="0.91 r13725"
   sodipodi:docname="resistor_color_code.svg">
  <metadata
     id="metadata264">
    <rdf:RDF>
      <cc:Work
         rdf:about="">
        <dc:format>image/svg+xml</dc:format>
        <dc:type
           rdf:resource="http://purl.org/dc/dcmitype/StillImage" />
        <dc:title></dc:title>
      </cc:Work>
    </rdf:RDF>
  </metadata>
  <defs
     id="defs262" />
  <sodipodi:namedview
     pagecolor="#ffffff"
     bordercolor="#666666"
     borderopacity="1"
     objecttolerance="10"
     gridtolerance="10"
     guidetolerance="10"
     inkscape:pageopacity="0"
     inkscape:pageshadow="2"
     inkscape:window-width="1223"
     inkscape:window-height="748"
     id="namedview260"
     showgrid="true"
     fit-margin-top="0"
     fit-margin-left="0"
     fit-margin-right="0"
     fit-margin-bottom="0"
     inkscape:zoom="6.517256913"
     inkscape:cx="23.48595359"
     inkscape:cy="23.41188313"
     inkscape:window-x="51"
     inkscape:window-y="3"
     inkscape:window-maximized="0"
     inkscape:current-layer="svg150"
     inkscape:snap-bbox="true"
     inkscape:bbox-paths="true"
     inkscape:bbox-nodes="true"
     inkscape:snap-bbox-edge-midpoints="true"
     inkscape:snap-bbox-midpoints="true"
     inkscape:object-paths="true"
     inkscape:snap-intersection-paths="true"
     inkscape:object-nodes="true"
     inkscape:snap-smooth-nodes="true"
     inkscape:snap-midpoints="true"
     inkscape:snap-object-midpoints="true"
     inkscape:snap-center="true">
    <inkscape:grid
       units="in"
       type="xygrid"
       id="grid3353"
       spacingy="0.7200029857"
       spacingx="0.7200002354"
       originx="10.285626"
       originy="16.12409538" />
  </sodipodi:namedview>
  <path
     d="m 12.39568276,3.43934 -1.0476,0"
     id="path152"
     inkscape:connector-curvature="0"
     style="fill:none;stroke:#8c8c8c;stroke-width:2.0952000618;stroke-linecap:round;stroke-linejoin:round" />
  <path
     d="m 39.10558276,3.43934 1.0476,0"
     id="path154"
     inkscape:connector-curvature="0"
     style="fill:none;stroke:#8c8c8c;stroke-width:2.0952000618;stroke-linecap:round;stroke-linejoin:round" />
  <g
     partID="57460"
     id="g156"
     transform="translate(-12.68021724,-99.05866)">
    <g
       transform="translate(22.9807,98.8657)"
       id="g158">
      <g
         id="breadboard">
        <rect
           height="0.7200000286"
           x="0.3600000143"
           y="2.584800005"
           id="connector0pin"
           width="0.7200000286"
           style="fill:none" />
        <rect
           height="0.7200000286"
           x="29.82019997"
           y="2.584800005"
           id="connector1pin"
           width="0.7200000286"
           style="fill:none" />
        <line
           x1="1.047600031"
           x2="2.095200062"
           id="connector0leg"
           y1="3.632400036"
           y2="3.632400036"
           style="fill:none;stroke:#8c8c8c;stroke-width:2.0952000618;stroke-linecap:round" />
        <line
           x1="29.8526001"
           x2="28.80500031"
           id="connector1leg"
           y1="3.632400036"
           y2="3.632400036"
           style="fill:none;stroke:#8c8c8c;stroke-width:2.0952000618;stroke-linecap:round" />
        <path
           d="m 1.0476,3.6324 28.3666,0"
           id="path165"
           inkscape:connector-curvature="0"
           style="fill:none;stroke:#8c8c8c;stroke-width:2.0952000618" />
        <path
           d="M 10.2478,0.49536 C 9.8878,0.32976 9.2686,0.20016 8.8726,0.20016 l -1.9872,0 c -0.396,0 -0.72,0.324 -0.72,0.72 l 0,5.35608 c 0,0.39672 0.324,0.72 0.72,0.72 l 1.9872,0 c 0.396,0 1.0152,-0.13608 1.3752,-0.2952 l 0.072,-0.03528 c 0.36,-0.1656 0.9792,-0.2952 1.3752,-0.2952 l 7.1856,0 c 0.39672,0 1.01448,0.13608 1.37448,0.2952 l 0.07272,0.03528 c 0.36,0.1656 0.97776,0.2952 1.3752,0.2952 l 1.9872,0 c 0.39744,0 0.72,-0.32328 0.72,-0.72 l 0,-5.35608 c 0,-0.396 -0.32256,-0.72 -0.72,-0.72 l -1.9872,0 c -0.39744,0 -1.0152,0.1368 -1.3752,0.2952 l -0.07272,0.036 c -0.36,0.1656 -0.97776,0.2952 -1.37448,0.2952 l -7.1856,0 c -0.396,0 -1.0152,-0.1368 -1.3752,-0.2952 l -0.072,-0.036 z"
           id="body"
           inkscape:connector-curvature="0"
           style="fill:#d9b477" />
        <rect
           height="6.795360088"
           x="22.0189991"
           y="0.1936800033"
           id="gold_band"
           width="0.7027199864"
           style="fill:#ad9f4e" />
        <rect
           height="5.536799908"
           x="16.17259979"
           y="0.8265600204"
           id="band_rd_multiplier"
           width="1.850399971"
           style="fill:#c40808" />
        <rect
           height="5.536799908"
           x="12.47259998"
           y="0.8265600204"
           id="band_2_nd"
           width="1.850399971"
           style="fill:#000000" />
        <path
           d="m 10.6286,0.63936 c -0.1152,-0.036 -0.2232,-0.072 -0.3096,-0.1152 l -0.072,-0.036 C 9.887,0.32328 9.2678,0.19296 8.8718,0.19296 l -0.0864,0 0,6.79608 0.0864,0 c 0.396,0 1.0152,-0.13608 1.3752,-0.2952 l 0.072,-0.03528 c 0.0864,-0.04464 0.1944,-0.07992 0.3096,-0.1152 l 0,-5.904 z"
           id="band_1_st"
           inkscape:connector-curvature="0"
           style="fill:#8a3d06" />
        <path
           d="m 23.711,4.0896 0,0 c 0,0.37944 -0.13032,0.69912 -0.2952,0.69912 l -1.9224,0 c -0.38016,0 -0.97776,-0.05616 -1.33272,-0.1224 L 20.088,4.65048 c -0.34488,-0.0648 -0.94896,-0.1224 -1.33344,-0.1224 l -6.94656,0 c -0.3816,0 -0.9792,0.0576 -1.332,0.1224 L 10.404,4.6656 C 10.0584,4.73112 9.4608,4.788 9.072,4.788 l -0.3168,0 -1.0008,0 -0.3096,0 c -0.3816,0 -0.6984,0.29376 -0.6984,0.64512 l 0,0.24696 0,0.15912 0,0.1728 c 0,0.36 0.3168,0.64512 0.6984,0.64512 l 1.62,0 c 0.3816,0 0.9792,-0.1224 1.332,-0.26712 l 0.072,-0.02808 c 0.3456,-0.14112 0.9504,-0.26496 1.332,-0.26496 l 6.94656,0 c 0.37944,0 0.97704,0.12384 1.33416,0.26568 l 0.07416,0.02808 c 0.34488,0.14472 0.94464,0.26712 1.33344,0.26712 l 2.2248,0 c 0.38088,0 0.69912,-0.2952 0.69912,-0.64512 l -4e-5,-0.54072 0,-0.97272 0,-1.84392 c -0.2772,0.108 -0.702,0.4104 -0.702,1.43424 z"
           id="Shadow"
           inkscape:connector-curvature="0"
           style="opacity:0.3" />
        <rect
           height="3.152879953"
           x="22.0189991"
           y="3.483360052"
           id="ShadowExtra"
           width="0.7027199864"
           style="opacity:0.4" />
        <path
           d="m 19.751,1.08576 c 0.22968,0 0.49104,-0.1008 0.6624,-0.1728 0.2016,-0.0792 0.57672,-0.144 0.96624,-0.144 l 1.46088,0 c 0.22464,0 0.22464,0.2448 0.22464,0.3744 0,0.1296 -0.01512,0.3816 -0.22464,0.3816 l -3.06,0 c -0.10728,0 -0.2304,-0.1152 -0.2304,-0.22392 C 19.5566,1.21536 19.6286,1.08576 19.751,1.08576 Z"
           id="ReflexRight"
           inkscape:connector-curvature="0"
           style="opacity:0.25;fill:#ffffff" />
        <circle
           cy="1.136160016"
           r="0.4320000112"
           id="ReflexLeft"
           cx="6.999839783"
           style="opacity:0.35;fill:#ffffff" />
        <rect
           height="1.620000005"
           x="22.0189991"
           y="0.4233599901"
           id="Reflex_gold"
           width="0.7027199864"
           style="opacity:0.5;fill:#ffff33" />
        <rect
           height="0.7487999797"
           x="22.0189991"
           y="0.7833600044"
           id="Reflex_extra"
           width="0.7027199864"
           style="opacity:0.5;fill:#ffffff" />
      </g>
    </g>
  </g>
  <path
     style="opacity:0.8458333333;fill:#000000;fill-opacity:0;fill-rule:nonzero;stroke:#000000;stroke-width:0.7200030088;stroke-linecap:round;stroke-linejoin:round;stroke-miterlimit:4;stroke-dasharray:none;stroke-dashoffset:0;stroke-opacity:1"
     d="m 11.72561259,11.12329817 3.60001511,0 c 3.60001511,1e-8 4.65745491,-2.160009056 4.65745491,-3.600015096"
     id="path3355"
     inkscape:connector-curvature="0"
     sodipodi:nodetypes="ccc" />
  <path
     sodipodi:nodetypes="ccc"
     inkscape:connector-curvature="0"
     id="path4157"
     d="m 14.60562468,14.72331329 3.6000151,0 c 2.88001209,0 5.55108088,-4.32001813 5.55108088,-7.200030216"
     style="opacity:0.8458333333;fill:#000000;fill-opacity:0;fill-rule:nonzero;stroke:#000000;stroke-width:0.7200030088;stroke-linecap:round;stroke-linejoin:round;stroke-miterlimit:4;stroke-dasharray:none;stroke-dashoffset:0;stroke-opacity:1" />
  <path
     style="opacity:0.8458333333;fill:#000000;fill-opacity:0;fill-rule:nonzero;stroke:#000000;stroke-width:0.7200030088;stroke-linecap:round;stroke-linejoin:round;stroke-miterlimit:4;stroke-dasharray:none;stroke-dashoffset:0;stroke-opacity:1"
     d="m 17.48563677,18.32332839 3.6000151,0 c 5.04002115,0 6.48002719,-9.360039276 6.48002719,-10.800045316"
     id="path4161"
     inkscape:connector-curvature="0"
     sodipodi:nodetypes="ccc" />
  <path
     sodipodi:nodetypes="ccc"
     inkscape:connector-curvature="0"
     id="path4163"
     d="m 20.36564885,21.9233435 3.6000151,0 c 7.20003022,0 8.64003626,-12.960054386 8.64003626,-14.400060426"
     style="opacity:0.8458333333;fill:#000000;fill-opacity:0;fill-rule:nonzero;stroke:#000000;stroke-width:0.7200030088;stroke-linecap:round;stroke-linejoin:round;stroke-miterlimit:4;stroke-dasharray:none;stroke-dashoffset:0;stroke-opacity:1" />
  <text
     xml:space="preserve"
     style="font-style:normal;font-variant:normal;font-weight:normal;font-stretch:normal;font-size:9.6000404358px;line-height:120.0000047684%;font-family:NovaMono;-inkscape-font-specification:NovaMono;letter-spacing:0px;word-spacing:0px;fill:#000000;fill-opacity:1;stroke:none;stroke-width:1px;stroke-linecap:butt;stroke-linejoin:miter;stroke-opacity:1"
     x="-0.36995548"
     y="12.089489"
     id="text4165"
     sodipodi:linespacing="120.0000048%"><tspan
       sodipodi:role="line"
       id="tspan4169"
       x="-0.36995548"
       y="12.089489"
       style="font-style:normal;font-variant:normal;font-weight:normal;font-stretch:normal;font-size:2.5000104904px;line-height:120.0000047684%;font-family:Geneva;-inkscape-font-specification:'Geneva, Normal';text-align:start;writing-mode:lr-tb;text-anchor:start">1st Band</tspan></text>
  <text
     sodipodi:linespacing="120.0000048%"
     id="text4195"
     y="22.889534"
     x="7.306942"
     style="font-style:normal;font-variant:normal;font-weight:normal;font-stretch:normal;font-size:9.6000404358px;line-height:120.0000047684%;font-family:NovaMono;-inkscape-font-specification:NovaMono;letter-spacing:0px;word-spacing:0px;fill:#000000;fill-opacity:1;stroke:none;stroke-width:1px;stroke-linecap:butt;stroke-linejoin:miter;stroke-opacity:1"
     xml:space="preserve"><tspan
       style="font-style:normal;font-variant:normal;font-weight:normal;font-stretch:normal;font-size:2.5000104904px;line-height:120.0000047684%;font-family:Geneva;-inkscape-font-specification:'Geneva, Normal';text-align:start;writing-mode:lr-tb;text-anchor:start"
       y="22.889534"
       x="7.306942"
       id="tspan4197"
       sodipodi:role="line">Tolerance</tspan></text>
  <text
     xml:space="preserve"
     style="font-style:normal;font-variant:normal;font-weight:normal;font-stretch:normal;font-size:9.6000404358px;line-height:120.0000047684%;font-family:NovaMono;-inkscape-font-specification:NovaMono;letter-spacing:0px;word-spacing:0px;fill:#000000;fill-opacity:1;stroke:none;stroke-width:1px;stroke-linecap:butt;stroke-linejoin:miter;stroke-opacity:1"
     x="5.2557907"
     y="19.043547"
     id="text4199"
     sodipodi:linespacing="120.0000048%"><tspan
       sodipodi:role="line"
       id="tspan4201"
       x="5.2557907"
       y="19.043547"
       style="font-style:normal;font-variant:normal;font-weight:normal;font-stretch:normal;font-size:2.5000104904px;line-height:120.0000047684%;font-family:Geneva;-inkscape-font-specification:'Geneva, Normal';text-align:start;writing-mode:lr-tb;text-anchor:start">Multiplier</tspan></text>
  <text
     sodipodi:linespacing="120.0000048%"
     id="text4203"
     y="15.689504"
     x="1.9241158"
     style="font-style:normal;font-variant:normal;font-weight:normal;font-stretch:normal;font-size:9.6000404358px;line-height:120.0000047684%;font-family:NovaMono;-inkscape-font-specification:NovaMono;letter-spacing:0px;word-spacing:0px;fill:#000000;fill-opacity:1;stroke:none;stroke-width:1px;stroke-linecap:butt;stroke-linejoin:miter;stroke-opacity:1"
     xml:space="preserve"><tspan
       style="font-style:normal;font-variant:normal;font-weight:normal;font-stretch:normal;font-size:2.5000104904px;line-height:120.0000047684%;font-family:Geneva;-inkscape-font-specification:'Geneva, Normal';text-align:start;writing-mode:lr-tb;text-anchor:start"
       y="15.689504"
       x="1.9241158"
       id="tspan4205"
       sodipodi:role="line">2nd Band</tspan></text>
</svg>
