<?xml version="1.0" encoding="UTF-8" standalone="no"?>
<!-- Created with Fritzing (http://www.fritzing.org/) -->

<svg
   xmlns:dc="http://purl.org/dc/elements/1.1/"
   xmlns:cc="http://creativecommons.org/ns#"
   xmlns:rdf="http://www.w3.org/1999/02/22-rdf-syntax-ns#"
   xmlns:svg="http://www.w3.org/2000/svg"
   xmlns="http://www.w3.org/2000/svg"
   xmlns:sodipodi="http://sodipodi.sourceforge.net/DTD/sodipodi-0.dtd"
   xmlns:inkscape="http://www.inkscape.org/namespaces/inkscape"
   version="1.2"
   x="0in"
   y="0in"
   width="0.24518in"
   height="0.33002in"
   viewBox="0 0 17.653 23.7614"
   id="svg2"
   inkscape:version="0.91 r13725"
   sodipodi:docname="Untitled Sketch_bb.svg"
   inkscape:export-filename="/Users/bri/rgit/readysetstem-projects/fritzing/diagrams/Untitled Sketch_bb.png"
   inkscape:export-xdpi="815.7299805"
   inkscape:export-ydpi="815.7299805">
  <metadata
     id="metadata56">
    <rdf:RDF>
      <cc:Work
         rdf:about="">
        <dc:format>image/svg+xml</dc:format>
        <dc:type
           rdf:resource="http://purl.org/dc/dcmitype/StillImage" />
      </cc:Work>
    </rdf:RDF>
  </metadata>
  <defs
     id="defs54" />
  <sodipodi:namedview
     pagecolor="#ffffff"
     bordercolor="#666666"
     borderopacity="1"
     objecttolerance="10"
     gridtolerance="10"
     guidetolerance="10"
     inkscape:pageopacity="0"
     inkscape:pageshadow="2"
     inkscape:window-width="1584"
     inkscape:window-height="1091"
     id="namedview52"
     showgrid="false"
     inkscape:snap-bbox="true"
     inkscape:bbox-paths="true"
     inkscape:bbox-nodes="false"
     inkscape:snap-object-midpoints="true"
     inkscape:snap-center="true"
     inkscape:snap-midpoints="true"
     inkscape:object-nodes="false"
     inkscape:snap-smooth-nodes="false"
     inkscape:snap-intersection-paths="false"
     inkscape:object-paths="false"
     inkscape:snap-bbox-edge-midpoints="false"
     inkscape:snap-bbox-midpoints="false"
     inkscape:snap-others="false"
     inkscape:snap-nodes="true"
     showguides="true"
     inkscape:guide-bbox="true"
     inkscape:zoom="9.69414749"
     inkscape:cx="13.98314743"
     inkscape:cy="22.5738119"
     inkscape:window-x="1516"
     inkscape:window-y="41"
     inkscape:window-maximized="0"
     inkscape:current-layer="g7">
    <sodipodi:guide
       position="1.501199948,23.76063241"
       orientation="1,0"
       id="guide4184" />
    <sodipodi:guide
       position="15.90189945,23.76135241"
       orientation="1,0"
       id="guide4186" />
  </sodipodi:namedview>
  <g
     partID="57370"
     id="g4">
    <g
       id="breadboard">
      <g
         id="g7">
        <polygon
           points="14.8219,23.7449,14.8219,15.4706,16.9819,15.4706,16.9819,23.7449"
           fill="#8C8C8C"
           id="polygon9" />
        <polygon
           points="0.42192,8.27496,0.42192,0.00072,2.58048,0.00072,2.58048,8.27496"
           fill="#8C8C8C"
           id="polygon11" />
        <polygon
           points="14.8219,8.27568,14.8219,0,16.9819,0,16.9819,8.27568"
           fill="#8C8C8C"
           id="polygon13" />
        <polygon
           points="0.42264,23.7463,0.42264,15.4706,2.58192,15.4706,2.58192,23.7463"
           fill="#8C8C8C"
           id="polygon15" />
        <rect
           height="17.6544"
           x="0.00864"
           y="3.04704"
           width="17.653"
           id="rect17" />
        <path
           d="M17.6609,19.2614c0,0.79272,-0.64512,1.43928,-1.44,1.43928L1.44792,20.7007c-0.79272,0,-1.43928,-0.64656,-1.43928,-1.43928L0.00864,4.4856c0,-0.792,0.64656,-1.43856,1.43928,-1.43856l14.7751,0c0.79416,0,1.43784,0.64656,1.43784,1.43856L17.6609,19.2614L17.6609,19.2614z"
           fill="#999999"
           id="path19" />
        <circle
           r="1.52928"
           cx="2.57976"
           cy="5.61816"
           id="circle21" />
        <circle
           r="1.52928"
           cx="15.133"
           cy="5.6448"
           id="circle23" />
        <circle
           r="1.52928"
           cx="15.1063"
           cy="18.198"
           id="circle25" />
        <circle
           r="1.52928"
           cx="2.55312"
           cy="18.1699"
           id="circle27" />
        <circle
           r="5.148"
           cx="8.8344"
           cy="11.8735"
           fill="#3F3F3F"
           id="circle29" />
        <linearGradient
           gradientUnits="userSpaceOnUse"
           gradientTransform="matrix(1 0 0 -1 273 -448.8574)"
           id="SVGID_1_"
           y1="-335.051"
           y2="-335.051"
           x1="-192.873"
           x2="-182.577">
          <stop
             style="stop-color:#333333"
             offset="0"
             id="stop32" />
          <stop
             style="stop-color:#3C3C3C"
             offset="1"
             id="stop34" />
        </linearGradient>
        <circle
           r="5.148"
           cx="8.8344"
           cy="11.8735"
           fill="url(#SVGID_1_)"
           id="circle36" />
        <circle
           opacity="0.6"
           enable-background="new    "
           r="4.53024"
           cx="8.9244"
           cy="12.4855"
           id="circle38" />
        <circle
           r="4.41504"
           cx="8.84088"
           cy="11.9038"
           fill="#735348"
           id="circle40"
           style="fill:#a02c2c" />
        <path
           opacity="0.5"
           enable-background="new    "
           d="M2.38176,5.53824c0.03024,-0.072,0.08568,-0.12744,0.16416,-0.14112L2.39472,4.43376C2.33712,4.44312,2.27592,4.4352,2.21904,4.45248L2.2176,4.44816C1.8612,4.55832,1.5948,4.824,1.45872,5.16312L2.38176,5.53824z"
           fill="#FFFFFF"
           id="path42" />
        <path
           opacity="0.5"
           enable-background="new    "
           d="M14.9335,5.56416c0.02952,-0.07344,0.08496,-0.12888,0.16488,-0.14184l-0.14904,-0.96336c-0.05904,0.0108,-0.11952,0.00144,-0.1764,0.01872l-0.00216,-0.00504c-0.35496,0.10944,-0.62208,0.37512,-0.75816,0.71496L14.9335,5.56416z"
           fill="#FFFFFF"
           id="path44" />
        <path
           opacity="0.5"
           enable-background="new    "
           d="M14.909,18.1174c0.02952,-0.07344,0.08352,-0.1296,0.16344,-0.14184l-0.14904,-0.96264c-0.05904,0.0108,-0.11952,0.00144,-0.17712,0.01872l-0.00144,-0.0072c-0.35568,0.10944,-0.6228,0.37512,-0.75816,0.71568L14.909,18.1174z"
           fill="#FFFFFF"
           id="path46" />
        <path
           opacity="0.5"
           enable-background="new    "
           d="M2.35512,18.0907c0.02952,-0.07344,0.08496,-0.12672,0.16488,-0.1404l-0.1512,-0.96408c-0.05904,0.01224,-0.11952,0.00144,-0.1764,0.01944l-0.00144,-0.00504c-0.3564,0.108,-0.6228,0.37512,-0.76032,0.71424L2.35512,18.0907z"
           fill="#FFFFFF"
           id="path48" />
        <path
           opacity="0.6"
           enable-background="new    "
           d="M10.4206,7.78896c-0.342,-0.1332,-0.702,-0.22896,-1.08288,-0.27216c-0.94752,-0.10584,-1.85472,0.1044,-2.63016,0.53424L6.61104,8.3016c0.86616,-0.46296,1.87488,-0.67752,2.92464,-0.56016c0.32256,0.03744,0.63648,0.10944,0.93672,0.20448L10.4206,7.78896z"
           fill="#FFFFFF"
           id="path50" />
        <path
           style="opacity:1;fill:#008000;fill-opacity:1;fill-rule:nonzero;stroke:#008000;stroke-width:1.360003151;stroke-linecap:round;stroke-linejoin:round;stroke-miterlimit:4;stroke-dasharray:1.360003151,2.7200063019;stroke-dashoffset:0;stroke-opacity:0.9166666667"
           d="m 1.5012,3.086752255 0,17.592583975"
           id="path4192"
           inkscape:connector-curvature="0" />
        <path
           inkscape:connector-curvature="0"
           id="path4194"
           d="m 15.9019,3.086752255 0,17.592583975"
           style="opacity:1;fill:#008000;fill-opacity:1;fill-rule:nonzero;stroke:#008000;stroke-width:1.360003151;stroke-linecap:round;stroke-linejoin:round;stroke-miterlimit:4;stroke-dasharray:1.360003151,2.7200063019;stroke-dashoffset:0;stroke-opacity:0.9166666667" />
      </g>
    </g>
  </g>
</svg>
