
<svg xmlns="http://www.w3.org/2000/svg"
     xmlns:xlink="http://www.w3.org/1999/xlink" version="1.1" width="127"
     height="68">
    <defs/>
    <g transform=" scale(0.63) translate(-80,-426.8)">
        <rect x="190.8" y="442.8" width="2.4" height="2.4" fill="#000000"
              stroke="none" pointer-events="none"/>
        <rect x="190.8" y="514.8" width="2.4" height="2.4" fill="#000000"
              stroke="none" pointer-events="none"/>
        <path d="M 171.04 455.47 C 183.04 455.47 183.04 455.47 183.04 455.47"
              fill="none" stroke="#000000" stroke-width="1.8"
              stroke-linecap="round" stroke-miterlimit="10"
              pointer-events="none"/>
        <path d="M 177.04 449.47 C 177.04 461.47 177.04 461.47 177.04 461.47"
              fill="none" stroke="#000000" stroke-width="1.8"
              stroke-linecap="round" stroke-miterlimit="10"
              pointer-events="none"/>
        <path d="M 170.4 466.24 C 213.6 466.24 213.6 466.24 213.6 466.24"
              fill="none" stroke="#000000" stroke-width="2.4"
              stroke-linecap="round" stroke-miterlimit="10"
              pointer-events="none"/>
        <path d="M 181.2 475.2 C 202.8 475.2 202.8 475.2 202.8 475.2"
              fill="none" stroke="#000000" stroke-width="2.4"
              stroke-linecap="round" stroke-miterlimit="10"
              pointer-events="none"/>
        <path d="M 170.4 485.44 C 213.6 485.44 213.6 485.44 213.6 485.44"
              fill="none" stroke="#000000" stroke-width="2.4"
              stroke-linecap="round" stroke-miterlimit="10"
              pointer-events="none"/>
        <path d="M 181.2 494.4 C 202.8 494.4 202.8 494.4 202.8 494.4"
              fill="none" stroke="#000000" stroke-width="2.4"
              stroke-linecap="round" stroke-miterlimit="10"
              pointer-events="none"/>
        <path d="M 192 445.2 L 192 465.6" fill="none" stroke="#000000"
              stroke-width="2.4" stroke-linejoin="round" stroke-linecap="square"
              stroke-miterlimit="10" pointer-events="none"/>
        <path d="M 192 494.4 L 192 514.8" fill="none" stroke="#000000"
              stroke-width="2.4" stroke-linejoin="round" stroke-linecap="square"
              stroke-miterlimit="10" pointer-events="none"/>
        <rect x="187.2" y="439.2" width="9.6" height="9.6" fill="none"
              stroke="none" pointer-events="none"/>
        <rect x="187.2" y="511.2" width="9.6" height="9.6" fill="none"
              stroke="none" pointer-events="none"/>
        <rect x="84" y="468" width="64.8" height="16.8" fill-opacity="0"
              fill="#dae2f2" stroke="none" pointer-events="none"/>
        <g fill="#000000" font-family="Arial,Helvetica" font-weight="bold"
           text-anchor="middle" font-size="14px">
            <text x="116.4" y="481.2">
                BATTERY
            </text>
        </g>
        <path d="M 192 444 L 192 432 L 240 432 L 240 528 L 192 528 L 192 516"
              fill="none" stroke="#000000" stroke-width="2.4"
              stroke-miterlimit="10" pointer-events="none"/>
    </g>
</svg>