
<svg xmlns="http://www.w3.org/2000/svg"
     xmlns:xlink="http://www.w3.org/1999/xlink" version="1.1" width="240"
     height="128">
    <defs/>
    <g transform=" scale(0.76) translate(-220,-1396)">
        <rect x="316" y="1356" width="8" height="8" fill="#000000" stroke="none"
              transform="translate(0,1480)scale(1,-1)translate(0,-1480)rotate(-270,360,1480)"
              pointer-events="none"/>
        <rect x="316" y="1596" width="8" height="8" fill="#000000" stroke="none"
              transform="translate(0,1480)scale(1,-1)translate(0,-1480)rotate(-270,360,1480)"
              pointer-events="none"/>
        <path d="M 288 1449.02 C 376 1449.02 352 1449.02 352 1449.02"
              fill="none" stroke="#000000" stroke-width="8"
              stroke-linecap="round" stroke-miterlimit="10"
              transform="translate(0,1480)scale(1,-1)translate(0,-1480)rotate(-270,360,1480)"
              pointer-events="none"/>
        <path d="M 319.44 1450.14 C 319.44 1450.14 319.44 1450.14 288 1509.02 C 350.88 1509.02 350.88 1509.02 350.88 1509.02 Z"
              fill="#000000" stroke="#000000" stroke-width="5.96"
              stroke-linejoin="round" stroke-linecap="round"
              stroke-miterlimit="10"
              transform="translate(0,1480)scale(1,-1)translate(0,-1480)rotate(-270,360,1480)"
              pointer-events="none"/>
        <path d="M 320 1364 L 320 1596" fill="#000000" stroke="#000000"
              stroke-width="8" stroke-linecap="square" stroke-miterlimit="10"
              transform="translate(0,1480)scale(1,-1)translate(0,-1480)rotate(-270,360,1480)"
              pointer-events="none"/>
        <path d="M 392.99 1435.09 L 409.96 1452.06 L 421.27 1423.78 Z"
              fill="#000000" stroke="#000000" stroke-width="4"
              stroke-linejoin="round" stroke-linecap="square"
              stroke-miterlimit="10"
              transform="translate(0,1480)scale(1,-1)translate(0,-1480)rotate(-270,360,1480)"
              pointer-events="none"/>
        <path d="M 376.02 1468.9 L 409.96 1434.96" fill="none" stroke="#000000"
              stroke-width="8" stroke-linejoin="round" stroke-linecap="round"
              stroke-miterlimit="10"
              transform="translate(0,1480)scale(1,-1)translate(0,-1480)rotate(-270,360,1480)"
              pointer-events="none"/>
        <path d="M 386.27 1390.86 L 403.24 1407.83 L 414.56 1379.54 Z"
              fill="#000000" stroke="#000000" stroke-width="4"
              stroke-linejoin="round" stroke-linecap="round"
              stroke-miterlimit="10"
              transform="translate(0,1480)scale(1,-1)translate(0,-1480)rotate(-270,360,1480)"
              pointer-events="none"/>
        <path d="M 369.3 1424.86 L 403.24 1390.92" fill="none" stroke="#000000"
              stroke-width="8" stroke-linejoin="round" stroke-linecap="round"
              stroke-miterlimit="10"
              transform="translate(0,1480)scale(1,-1)translate(0,-1480)rotate(-270,360,1480)"
              pointer-events="none"/>
        <rect x="464" y="1504" width="32" height="32" fill="none" stroke="none"
              pointer-events="none"/>
        <rect x="224" y="1504" width="32" height="32" fill="none" stroke="none"
              pointer-events="none"/>
    </g>
</svg>