
<svg xmlns="http://www.w3.org/2000/svg"
     xmlns:xlink="http://www.w3.org/1999/xlink" version="1.1" width="55"
     height="32">
    <defs/>
    <g transform=" scale(0.44) translate(-69.60000000000001,-380)">
        <rect x="102.4" y="454.4" width="3.2" height="3.2" fill="#000000"
              stroke="none" transform="rotate(90,120,416)" pointer-events="none"/>
        <rect x="134.4" y="454.4" width="3.2" height="3.2" fill="#000000"
              stroke="none" transform="rotate(90,120,416)" pointer-events="none"/>
        <ellipse cx="120" cy="409" rx="24.20869632" ry="24.20869632"
                 fill="#ffffff" stroke="#000000" stroke-width="3.2"
                 transform="rotate(90,120,416)" pointer-events="none"/>
        <path d="M 128.88 408.67 C 128.94 411.01 128.86 413.7 127.77 415.54 C 126.69 416.9 125.79 414.48 125.61 413.1 C 125.36 411.71 125.29 410.25 125.35 408.82"
              fill="none" stroke="#000000" stroke-width="3.2"
              stroke-linecap="round" stroke-miterlimit="10"
              transform="rotate(90,120,416)" pointer-events="none"/>
        <path d="M 121.77 408.67 C 121.83 411.01 121.75 413.7 120.66 415.54 C 119.58 416.9 118.68 414.48 118.5 413.1 C 118.25 411.71 118.18 410.25 118.24 408.82"
              fill="none" stroke="#000000" stroke-width="3.2"
              stroke-linecap="round" stroke-miterlimit="10"
              transform="rotate(90,120,416)" pointer-events="none"/>
        <path d="M 114.65 408.67 C 114.72 411.01 114.64 413.7 113.55 415.54 C 112.47 416.9 111.57 414.48 111.39 413.1 C 111.14 411.71 111.07 410.25 111.13 408.82"
              fill="none" stroke="#000000" stroke-width="3.2"
              stroke-linecap="round" stroke-miterlimit="10"
              transform="rotate(90,120,416)" pointer-events="none"/>
        <path d="M 114.64 408.67 C 114.7 411.01 114.62 413.7 113.53 415.54 C 112.45 416.9 111.55 414.48 111.37 413.1 C 111.12 411.71 111.05 410.25 111.11 408.82"
              fill="none" stroke="#000000" stroke-width="3.2"
              stroke-linecap="round" stroke-miterlimit="10"
              transform="rotate(90,120,416)" pointer-events="none"/>
        <path d="M 111.11 409.7 C 111.05 405.65 113.33 401.93 116.04 401.71 C 118.72 401.31 121.35 404.45 121.71 408.45 C 121.75 408.85 121.77 409.25 121.78 409.66"
              fill="none" stroke="#000000" stroke-width="3.2"
              stroke-linecap="round" stroke-miterlimit="10"
              transform="rotate(90,120,416)" pointer-events="none"/>
        <path d="M 118.22 409.69 C 118.16 405.64 120.45 401.92 123.16 401.71 C 125.81 401.32 128.4 404.37 128.81 408.31 C 128.86 408.78 128.89 409.26 128.89 409.74"
              fill="none" stroke="#000000" stroke-width="3.2"
              stroke-linecap="round" stroke-miterlimit="10"
              transform="rotate(90,120,416)" pointer-events="none"/>
        <path d="M 136 409.71 C 136.07 405.66 133.78 401.93 131.08 401.71 C 128.4 401.3 125.77 404.42 125.4 408.41 C 125.36 408.81 125.34 409.21 125.33 409.62"
              fill="none" stroke="#000000" stroke-width="3.2"
              stroke-linecap="round" stroke-miterlimit="10"
              transform="rotate(90,120,416)" pointer-events="none"/>
        <path d="M 104 410 C 103.84 405.96 106.03 402.11 108.73 401.74 C 111.37 401.19 114.04 404.09 114.54 408 C 114.62 408.55 114.66 409.11 114.66 409.67"
              fill="none" stroke="#000000" stroke-width="3.2"
              stroke-linecap="round" stroke-miterlimit="10"
              transform="rotate(90,120,416)" pointer-events="none"/>
        <path d="M 104 409.71 C 104 449.71 104 449.71 104 449.71" fill="none"
              stroke="#000000" stroke-width="3.2" stroke-linecap="square"
              stroke-miterlimit="10" transform="rotate(90,120,416)"
              pointer-events="none"/>
        <path d="M 136 449.71 C 136 409.71 136 409.71 136 409.71" fill="none"
              stroke="#000000" stroke-width="3.2" stroke-linecap="square"
              stroke-miterlimit="10" transform="rotate(90,120,416)"
              pointer-events="none"/>
        <path d="M 104 441.6 L 104 454.4" fill="#ffffff" stroke="#000000"
              stroke-width="3.2" stroke-linecap="square" stroke-miterlimit="10"
              transform="rotate(90,120,416)" pointer-events="none"/>
        <path d="M 136 441.6 L 136 454.4" fill="#ffffff" stroke="#000000"
              stroke-width="3.2" stroke-linecap="square" stroke-miterlimit="10"
              transform="rotate(90,120,416)" pointer-events="none"/>
        <rect x="73.6" y="393.6" width="12.8" height="12.8" fill="none"
              stroke="none" pointer-events="none"/>
        <rect x="73.6" y="425.6" width="12.8" height="12.8" fill="none"
              stroke="none" pointer-events="none"/>
    </g>
</svg>