
<svg xmlns="http://www.w3.org/2000/svg"
     xmlns:xlink="http://www.w3.org/1999/xlink" version="1.1" width="240"
     height="48">
    <defs/>
    <g transform=" scale(0.55) translate(-1060,-556)">
        <rect x="1196" y="476" width="8" height="8" fill="#000000" stroke="none"
              transform="rotate(90,1200,600)" pointer-events="none"/>
        <rect x="1196" y="716" width="8" height="8" fill="#000000" stroke="none"
              transform="rotate(90,1200,600)" pointer-events="none"/>
        <path d="M 1200 528 L 1228 540 L 1200 552" fill="none" stroke="#000000"
              stroke-width="8" stroke-linejoin="round" stroke-linecap="round"
              stroke-miterlimit="10" transform="rotate(90,1200,600)"
              pointer-events="none"/>
        <path d="M 1200 552 L 1172 564 L 1200 576" fill="none" stroke="#000000"
              stroke-width="8" stroke-linejoin="round" stroke-linecap="round"
              stroke-miterlimit="10" transform="rotate(90,1200,600)"
              pointer-events="none"/>
        <path d="M 1200 576 L 1228 588 L 1200 600" fill="none" stroke="#000000"
              stroke-width="8" stroke-linejoin="round" stroke-linecap="round"
              stroke-miterlimit="10" transform="rotate(90,1200,600)"
              pointer-events="none"/>
        <path d="M 1200 600 L 1172 612 L 1200 624" fill="none" stroke="#000000"
              stroke-width="8" stroke-linejoin="round" stroke-linecap="round"
              stroke-miterlimit="10" transform="rotate(90,1200,600)"
              pointer-events="none"/>
        <path d="M 1200 624 L 1228 636 L 1200 648" fill="none" stroke="#000000"
              stroke-width="8" stroke-linejoin="round" stroke-linecap="round"
              stroke-miterlimit="10" transform="rotate(90,1200,600)"
              pointer-events="none"/>
        <path d="M 1200 648 L 1172 660 L 1200 672" fill="none" stroke="#000000"
              stroke-width="8" stroke-linejoin="round" stroke-linecap="round"
              stroke-miterlimit="10" transform="rotate(90,1200,600)"
              pointer-events="none"/>
        <path d="M 1200 484 L 1200 524" fill="#000000" stroke="#000000"
              stroke-width="8" stroke-linecap="square" stroke-miterlimit="10"
              transform="rotate(90,1200,600)" pointer-events="none"/>
        <path d="M 1200 676 L 1200 716" fill="#000000" stroke="#000000"
              stroke-width="8" stroke-linecap="square" stroke-miterlimit="10"
              transform="rotate(90,1200,600)" pointer-events="none"/>
        <rect x="1304" y="584" width="32" height="32" fill="none" stroke="none"
              pointer-events="none"/>
        <rect x="1064" y="584" width="32" height="32" fill="none" stroke="none"
              pointer-events="none"/>
    </g>
</svg>