
<svg xmlns="http://www.w3.org/2000/svg"
     xmlns:xlink="http://www.w3.org/1999/xlink" version="1.1" width="77"
     height="64">
    <defs/>
    <g transform=" scale(0.62) translate(-469.6,-380)">
        <rect x="510.4" y="382.4" width="3.2" height="3.2" fill="#000000"
              stroke="none" transform="rotate(270,528,432)"
              pointer-events="none"/>
        <rect x="510.4" y="478.4" width="3.2" height="3.2" fill="#000000"
              stroke="none" transform="rotate(270,528,432)"
              pointer-events="none"/>
        <ellipse cx="512" cy="432" rx="30.399754064000003"
                 ry="30.399754064000003" fill="#ffffff" stroke="#000000"
                 stroke-width="3.2" transform="rotate(270,528,432)"
                 pointer-events="none"/>
        <path d="M 512 385.6 L 512 400" fill="none" stroke="#000000"
              stroke-width="3.2" stroke-linecap="square" stroke-miterlimit="10"
              transform="rotate(270,528,432)" pointer-events="none"/>
        <path d="M 512 464 L 512 478.4" fill="none" stroke="#000000"
              stroke-width="3.2" stroke-linecap="square" stroke-miterlimit="10"
              transform="rotate(270,528,432)" pointer-events="none"/>
        <path d="M 512 402.03 L 512 406.83 L 521.6 411.63 L 504 419.63 L 521.6 427.63 L 504 435.63 L 521.6 443.63 L 504 451.63 L 512 456.43 L 512 464.43"
              fill="none" stroke="#000000" stroke-width="3.2"
              stroke-linecap="square" stroke-miterlimit="10"
              transform="rotate(270,528,432)" pointer-events="none"/>
        <path d="M 561 384.33 L 544 403.63" fill="none" stroke="#000000"
              stroke-width="3.2" stroke-linecap="square" stroke-miterlimit="10"
              transform="rotate(270,528,432)" pointer-events="none"/>
        <path d="M 539.78 408.43 L 546.41 405.74 L 541.6 401.51 Z"
              fill="#000000" stroke="#000000" stroke-width="1.6"
              stroke-linecap="square" stroke-miterlimit="10"
              transform="rotate(270,528,432)" pointer-events="none"/>
        <path d="M 496 448.9 L 527.02 417.16" fill="none" stroke="#000000"
              stroke-width="3.2" stroke-linecap="square" stroke-miterlimit="10"
              transform="rotate(270,528,432)" pointer-events="none"/>
        <path d="M 530.24 414.03 L 520.41 417.2 L 526.88 423.79 Z"
              fill="#000000" stroke="#000000" stroke-width="1.6"
              stroke-linecap="square" stroke-miterlimit="10"
              transform="rotate(270,528,432)" pointer-events="none"/>
        <path d="M 567.4 393.93 L 550.4 413.23" fill="none" stroke="#000000"
              stroke-width="3.2" stroke-linecap="square" stroke-miterlimit="10"
              transform="rotate(270,528,432)" pointer-events="none"/>
        <path d="M 546.18 418.03 L 552.81 415.34 L 548 411.11 Z" fill="#000000"
              stroke="#000000" stroke-width="1.6" stroke-linecap="square"
              stroke-miterlimit="10" transform="rotate(270,528,432)"
              pointer-events="none"/>
        <rect x="473.6" y="441.6" width="12.8" height="12.8" fill="none"
              stroke="none" pointer-events="none"/>
        <rect x="569.6" y="441.6" width="12.8" height="12.8" fill="none"
              stroke="none" pointer-events="none"/>
    </g>
</svg>