
<svg xmlns="http://www.w3.org/2000/svg"
     xmlns:xlink="http://www.w3.org/1999/xlink" version="1.1" width="240"
     height="128">
    <defs/>
    <g transform=" scale(0.76) translate(-140,-556)">
        <rect x="276" y="516" width="8" height="8" fill="#000000" stroke="none"
              transform="rotate(90,280,640)" pointer-events="none"/>
        <rect x="276" y="756" width="8" height="8" fill="#000000" stroke="none"
              transform="rotate(90,280,640)" pointer-events="none"/>
        <path d="M 210.12 558.23 C 250.12 558.23 250.12 558.23 250.12 558.23"
              fill="none" stroke="#000000" stroke-width="6"
              stroke-linecap="round" stroke-miterlimit="10"
              transform="rotate(90,280,640)" pointer-events="none"/>
        <path d="M 230.12 538.23 C 230.12 578.23 230.12 578.23 230.12 578.23"
              fill="none" stroke="#000000" stroke-width="6"
              stroke-linecap="round" stroke-miterlimit="10"
              transform="rotate(90,280,640)" pointer-events="none"/>
        <path d="M 208 594.13 C 352 594.13 352 594.13 352 594.13" fill="none"
              stroke="#000000" stroke-width="8" stroke-linecap="round"
              stroke-miterlimit="10" transform="rotate(90,280,640)"
              pointer-events="none"/>
        <path d="M 244 624 C 316 624 316 624 316 624" fill="none"
              stroke="#000000" stroke-width="8" stroke-linecap="round"
              stroke-miterlimit="10" transform="rotate(90,280,640)"
              pointer-events="none"/>
        <path d="M 208 658.13 C 352 658.13 352 658.13 352 658.13" fill="none"
              stroke="#000000" stroke-width="8" stroke-linecap="round"
              stroke-miterlimit="10" transform="rotate(90,280,640)"
              pointer-events="none"/>
        <path d="M 244 688 C 316 688 316 688 316 688" fill="none"
              stroke="#000000" stroke-width="8" stroke-linecap="round"
              stroke-miterlimit="10" transform="rotate(90,280,640)"
              pointer-events="none"/>
        <path d="M 280 524 L 280 592" fill="none" stroke="#000000"
              stroke-width="8" stroke-linejoin="round" stroke-linecap="square"
              stroke-miterlimit="10" transform="rotate(90,280,640)"
              pointer-events="none"/>
        <path d="M 280 688 L 280 756" fill="none" stroke="#000000"
              stroke-width="8" stroke-linejoin="round" stroke-linecap="square"
              stroke-miterlimit="10" transform="rotate(90,280,640)"
              pointer-events="none"/>
        <rect x="384" y="624" width="32" height="32" fill="none" stroke="none"
              pointer-events="none"/>
        <rect x="144" y="624" width="32" height="32" fill="none" stroke="none"
              pointer-events="none"/>
    </g>
</svg>