
<svg xmlns="http://www.w3.org/2000/svg"
     xmlns:xlink="http://www.w3.org/1999/xlink" version="1.1" width="200"
     height="128">
    <defs/>
    <g transform=" scale(0.76) translate(-540,-556)">
        <rect x="656" y="536" width="8" height="8" fill="#000000" stroke="none"
              transform="rotate(90,660,640)" pointer-events="none"/>
        <rect x="656" y="736" width="8" height="8" fill="#000000" stroke="none"
              transform="rotate(90,660,640)" pointer-events="none"/>
        <path d="M 620 560 C 620 600 620 600 620 600" fill="none"
              stroke="#000000" stroke-width="6" stroke-linecap="round"
              stroke-miterlimit="10" transform="rotate(90,660,640)"
              pointer-events="none"/>
        <path d="M 600 580 C 640 580 640 580 640 580" fill="none"
              stroke="#000000" stroke-width="6" stroke-linecap="round"
              stroke-miterlimit="10" transform="rotate(90,660,640)"
              pointer-events="none"/>
        <path d="M 616 624 C 704 624 704 624 704 624" fill="none"
              stroke="#000000" stroke-width="8" stroke-linecap="round"
              stroke-miterlimit="10" transform="rotate(90,660,640)"
              pointer-events="none"/>
        <path d="M 616 672 C 639.66 650.25 679.98 650.6 704 672" fill="none"
              stroke="#000000" stroke-width="8" stroke-linecap="round"
              stroke-miterlimit="10" transform="rotate(90,660,640)"
              pointer-events="none"/>
        <path d="M 660 544 L 660 620" fill="#000000" stroke="#000000"
              stroke-width="8" stroke-linecap="square" stroke-miterlimit="10"
              transform="rotate(90,660,640)" pointer-events="none"/>
        <path d="M 660 660 L 660 736" fill="#000000" stroke="#000000"
              stroke-width="8" stroke-linecap="square" stroke-miterlimit="10"
              transform="rotate(90,660,640)" pointer-events="none"/>
        <rect x="744" y="624" width="32" height="32" fill="none" stroke="none"
              pointer-events="none"/>
        <rect x="544" y="624" width="32" height="32" fill="none" stroke="none"
              pointer-events="none"/>
    </g>
</svg>